<svg xmlns="http://www.w3.org/2000/svg" viewBox="0 0 960 540" width="960" height="540">
  <defs>
    <linearGradient id="bg" x1="0" y1="0" x2="1" y2="1">
      <stop offset="0%" stop-color="#111827"/>
      <stop offset="100%" stop-color="#0B1220"/>
    </linearGradient>
    <linearGradient id="a" x1="0" y1="0" x2="1" y2="1">
      <stop offset="0%" stop-color="#A78BFA"/>
      <stop offset="100%" stop-color="#F472B6"/>
    </linearGradient>
    <linearGradient id="b" x1="0" y1="0" x2="1" y2="1">
      <stop offset="0%" stop-color="#22D3EE"/>
      <stop offset="100%" stop-color="#93C5FD"/>
    </linearGradient>
  </defs>
  <rect width="100%" height="100%" fill="transparent"/>
  <g opacity="0.8">
    <circle cx="160" cy="160" r="120" fill="url(#a)" opacity="0.25"/>
    <circle cx="800" cy="220" r="140" fill="url(#b)" opacity="0.2"/>
  </g>
  <g transform="translate(60,60)">
    <rect x="0" y="0" width="420" height="260" rx="20" fill="#111827" stroke="rgba(255,255,255,0.15)"/>
    <g transform="translate(24,24)" fill="#fff" fill-opacity="0.9">
      <rect x="0" y="0" width="120" height="12" rx="6"/>
      <rect x="0" y="28" width="360" height="8" rx="4" fill-opacity="0.6"/>
      <rect x="0" y="48" width="260" height="8" rx="4" fill-opacity="0.6"/>
      <g transform="translate(0,84)">
        <rect x="0" y="0" width="160" height="90" rx="12" fill="#0F172A" stroke="rgba(255,255,255,0.15)"/>
        <rect x="180" y="0" width="160" height="90" rx="12" fill="#0F172A" stroke="rgba(255,255,255,0.15)"/>
      </g>
    </g>
  </g>
  <g transform="translate(520,140)">
    <rect x="0" y="0" width="380" height="240" rx="20" fill="#111827" stroke="rgba(255,255,255,0.15)"/>
    <g transform="translate(24,24)" fill="#fff" fill-opacity="0.9">
      <rect x="0" y="0" width="140" height="12" rx="6"/>
      <rect x="0" y="28" width="320" height="8" rx="4" fill-opacity="0.6"/>
      <g transform="translate(0,64)">
        <rect x="0" y="0" width="320" height="140" rx="12" fill="#0F172A" stroke="rgba(255,255,255,0.15)"/>
        <circle cx="80" cy="70" r="40" fill="url(#a)" opacity="0.4"/>
        <circle cx="200" cy="70" r="40" fill="url(#b)" opacity="0.4"/>
      </g>
    </g>
  </g>
</svg>
