<svg xmlns="http://www.w3.org/2000/svg" width="96" height="96" viewBox="0 0 96 96">
  <defs>
    <linearGradient id="g" x1="0" y1="0" x2="1" y2="1">
      <stop offset="0%" stop-color="#8B5CF6"/>
      <stop offset="100%" stop-color="#EC4899"/>
    </linearGradient>
  </defs>
  <rect x="8" y="8" width="80" height="80" rx="20" fill="url(#g)"/>
  <g fill="#fff">
    <path d="M30 36h30a4 4 0 1 0 0-8H30a4 4 0 1 0 0 8z"/>
    <path d="M30 52h22a4 4 0 1 0 0-8H30a4 4 0 1 0 0 8z"/>
    <path d="M30 68h16a4 4 0 1 0 0-8H30a4 4 0 1 0 0 8z"/>
  </g>
</svg>
